# xmcd
#
# Track frame offsets:
#	150
#	14802
#	27315
#	39879
#	52476
#	64392
#	76010
#	84776
#	101393
#	114716
#
# Disc length: 1674 seconds
#
# Revision: 0
# Processed by: cddbd v1.5.2PL0 Copyright (c) Steve Scherf et al.
# Submitted via: dBpowerAMP V4.0
#
DISCID=7b06880a
DTITLE=Merle Haggard - Merle Haggard [CD2]
DYEAR=2007
DGENRE=Country
TTITLE0=Sing Me Back Home - Branded Man
TTITLE1=Everybody's Had The Blues
TTITLE2=The Fightin' Side Of Me
TTITLE3=If We Make It Through December
TTITLE4=Carolyn
TTITLE5=Soldier's Last Letter
TTITLE6=Hobo Bill
TTITLE7=Ramblin' Fever
TTITLE8=Blue Yodel
TTITLE9=Mama Tried
EXTD=
EXTT0=
EXTT1=
EXTT2=
EXTT3=
EXTT4=
EXTT5=
EXTT6=
EXTT7=
EXTT8=
EXTT9=
PLAYORDER=
